M48
METRIC
T1C0.300
T2C1.300
%
G90
G05
T1
X117.5Y-90.0
X118.0Y-77.0
X119.0Y-90.0
X119.5Y-76.5
X120.5Y-89.5
X121.0Y-77.0
X130.5Y-100.0
X131.0Y-80.5
X132.5Y-90.0
X135.5Y-80.5
X136.5Y-73.5
X138.0Y-72.5
X142.0Y-72.5
X142.5Y-100.0
X144.0Y-100.5
X145.0Y-101.5
X147.5Y-76.0
X155.5Y-64.5
X156.5Y-66.0
X157.0Y-67.0
X161.0Y-75.0
X161.5Y-80.5
X163.0Y-78.0
X163.5Y-76.5
T2
X134.5Y-107.5
X134.75Y-67.5
X139.5Y-107.5
X139.75Y-67.5
X144.5Y-107.5
X144.75Y-67.5
M30
